# Blender v2.72 (sub 0) OBJ File: ''
# www.blender.org
v -1.000000 -1.000000 -1.000000
v -1.000000 1.000000 -1.000000
v 1.000000 1.000000 -1.000000
v 1.000000 -1.000000 -1.000000
v -1.000000 -0.999999 1.000000
v -0.999999 1.000001 1.000000
v 1.000000 1.000000 1.000000
v 1.000000 -1.000000 1.000000
vt 0.000000 -1.000000
vt -1.000000 -1.000000
vt -1.000000 0.000000
vt -1.000000 1.000000
vt -0.000000 -0.000000
vt -0.000000 1.000000
vt 1.000000 1.000000
vt 1.000000 0.000000
vn -0.577300 0.577300 -0.577300
vn 0.577300 0.577300 -0.577300
vn 0.577300 -0.577300 -0.577300
vn 0.577300 -0.577300 0.577300
vn 0.577300 0.577300 0.577300
vn -0.577300 0.577300 0.577300
vn -0.577300 -0.577300 -0.577300
vn -0.577300 -0.577300 0.577300
f 2/1/1 3/2/2 4/3/3
f 8/4/4 7/3/5 6/5/6
f 1/5/7 5/6/8 6/4/6
f 2/5/1 6/6/6 7/4/5
f 7/6/5 8/7/4 4/8/3
f 1/1/7 4/2/3 8/3/4
f 1/5/7 2/1/1 4/3/3
f 5/6/8 8/4/4 6/5/6
f 2/3/1 1/5/7 6/4/6
f 3/3/2 2/5/1 7/4/5
f 3/5/2 7/6/5 4/8/3
f 5/5/8 1/1/7 8/3/4
