# Blender v2.72 (sub 0) OBJ File: ''
# www.blender.org
o Cube
v -1.000000 1.000000 1.000000
v -1.000000 -1.000000 1.000000
v 1.000000 -1.000000 1.000000
v 1.000000 1.000000 1.000000
v -1.000000 1.000000 -1.000000
v -1.000000 -1.000000 -1.000000
v 1.000000 -1.000000 -1.000000
v 1.000000 1.000000 -1.000000
vt 1.000000 0.000000
vt 1.000000 1.000000
vt 0.000000 1.000000
vt 0.000000 0.000000
vn 0.000000 0.000000 -1.000000
vn -1.000000 0.000000 0.000000
vn 0.000000 -1.000000 0.000000
vn 0.000000 0.000000 1.000000
vn 0.000000 1.000000 0.000000
vn 1.000000 0.000000 0.000000
s off
f 7/1/1 6/2/1 5/3/1
f 1/1/2 5/2/2 6/3/2
f 2/1/3 6/2/3 7/3/3
f 2/1/4 3/2/4 4/3/4
f 4/1/5 8/2/5 5/3/5
f 3/1/6 7/2/6 8/3/6
f 8/4/1 7/1/1 5/3/1
f 2/4/2 1/1/2 6/3/2
f 3/4/3 2/1/3 7/3/3
f 1/4/4 2/1/4 4/3/4
f 1/4/5 4/1/5 5/3/5
f 4/4/6 3/1/6 8/3/6
